# xmcd
#
# Track frame offsets:
#	150
#	19251
#	34711
#	54806
#	65022
#	74631
#	93282
#	111453
#	122512
#	130614
#	147285
#	161301
#	175211
#	183918
#	196815
#	211794
#	227156
#	240763
#	249201
#	263785
#
# Disc length: 3726 seconds
#
# Revision: 1
# Processed by: cddbd v1.4PL0 Copyright (c) Steve Scherf et al.
# Submitted via: EasyCDDAExtractor 6.0.0.1
#
DISCID=080e8c14
DTITLE=Eva Olmerova - Nejvetsi hity CD2
DYEAR=2001
DGENRE=Blues
TTITLE0=Az ztichnou Bile skaly
TTITLE1=Klidny je vecer
TTITLE2=Osamely rvac
TTITLE3=Svet ticha
TTITLE4=Cajova ruze
TTITLE5=Muj mily se vratil
TTITLE6=Oh darling
TTITLE7=Prosim, volejte 2245
TTITLE8=Georgia
TTITLE9=Zpivam dal
TTITLE10=Ja mam nastesti par pratel
TTITLE11=Den zacina krasne
TTITLE12=I wish I could shimmy like my sister Kate
TTITLE13=St Louis blues
TTITLE14=Sam jsi jenom napul
TTITLE15=Co te nema
TTITLE16=Nedelni chvilka volna
TTITLE17=Prozatim
TTITLE18=Byl jsi vic
TTITLE19=Znam te
EXTD=
EXTT0=
EXTT1=
EXTT2=
EXTT3=
EXTT4=
EXTT5=
EXTT6=
EXTT7=
EXTT8=
EXTT9=
EXTT10=
EXTT11=
EXTT12=
EXTT13=
EXTT14=
EXTT15=
EXTT16=
EXTT17=
EXTT18=
EXTT19=
PLAYORDER=
